<mxfile host="app.diagrams.net" modified="2022-07-10T08:14:01.557Z" agent="5.0 (Windows NT 10.0; Win64; x64) AppleWebKit/537.36 (KHTML, like Gecko) Chrome/103.0.0.0 Safari/537.36" etag="XaoO_iJI-Ael8ADSUizE" version="20.0.4" type="github">
  <diagram id="ifGEiTsDM0t73Z-B_w2h" name="Page-1">
    <mxGraphModel dx="782" dy="436" grid="1" gridSize="10" guides="1" tooltips="1" connect="1" arrows="1" fold="1" page="1" pageScale="1" pageWidth="827" pageHeight="1169" math="0" shadow="0">
      <root>
        <mxCell id="0" />
        <mxCell id="1" parent="0" />
        <mxCell id="aOQUIr4Q87Jn_gCgBzHk-6" value="" style="edgeStyle=orthogonalEdgeStyle;rounded=0;orthogonalLoop=1;jettySize=auto;html=1;" edge="1" parent="1" source="aOQUIr4Q87Jn_gCgBzHk-1" target="aOQUIr4Q87Jn_gCgBzHk-2">
          <mxGeometry relative="1" as="geometry" />
        </mxCell>
        <mxCell id="aOQUIr4Q87Jn_gCgBzHk-1" value="Main function" style="rounded=0;whiteSpace=wrap;html=1;" vertex="1" parent="1">
          <mxGeometry x="40" y="180" width="120" height="60" as="geometry" />
        </mxCell>
        <mxCell id="aOQUIr4Q87Jn_gCgBzHk-7" value="" style="edgeStyle=orthogonalEdgeStyle;rounded=0;orthogonalLoop=1;jettySize=auto;html=1;" edge="1" parent="1" source="aOQUIr4Q87Jn_gCgBzHk-2" target="aOQUIr4Q87Jn_gCgBzHk-4">
          <mxGeometry relative="1" as="geometry" />
        </mxCell>
        <mxCell id="aOQUIr4Q87Jn_gCgBzHk-2" value="create_person" style="rounded=0;whiteSpace=wrap;html=1;" vertex="1" parent="1">
          <mxGeometry x="200" y="180" width="120" height="60" as="geometry" />
        </mxCell>
        <mxCell id="aOQUIr4Q87Jn_gCgBzHk-8" value="" style="edgeStyle=orthogonalEdgeStyle;rounded=0;orthogonalLoop=1;jettySize=auto;html=1;" edge="1" parent="1" source="aOQUIr4Q87Jn_gCgBzHk-4" target="aOQUIr4Q87Jn_gCgBzHk-5">
          <mxGeometry relative="1" as="geometry" />
        </mxCell>
        <mxCell id="aOQUIr4Q87Jn_gCgBzHk-4" value="get_age" style="rounded=0;whiteSpace=wrap;html=1;" vertex="1" parent="1">
          <mxGeometry x="360" y="180" width="120" height="60" as="geometry" />
        </mxCell>
        <mxCell id="aOQUIr4Q87Jn_gCgBzHk-10" value="" style="edgeStyle=orthogonalEdgeStyle;rounded=0;orthogonalLoop=1;jettySize=auto;html=1;" edge="1" parent="1" source="aOQUIr4Q87Jn_gCgBzHk-5" target="aOQUIr4Q87Jn_gCgBzHk-9">
          <mxGeometry relative="1" as="geometry" />
        </mxCell>
        <mxCell id="aOQUIr4Q87Jn_gCgBzHk-5" value="quit-all interrupts get_age function but it doesn&#39;t interrupts create_person&lt;br&gt;" style="rounded=0;whiteSpace=wrap;html=1;" vertex="1" parent="1">
          <mxGeometry x="520" y="180" width="120" height="60" as="geometry" />
        </mxCell>
        <mxCell id="aOQUIr4Q87Jn_gCgBzHk-12" value="" style="edgeStyle=orthogonalEdgeStyle;rounded=0;orthogonalLoop=1;jettySize=auto;html=1;" edge="1" parent="1" source="aOQUIr4Q87Jn_gCgBzHk-9" target="aOQUIr4Q87Jn_gCgBzHk-11">
          <mxGeometry relative="1" as="geometry" />
        </mxCell>
        <mxCell id="aOQUIr4Q87Jn_gCgBzHk-9" value="quit-all launches a new process of create_person" style="whiteSpace=wrap;html=1;rounded=0;" vertex="1" parent="1">
          <mxGeometry x="520" y="280" width="120" height="60" as="geometry" />
        </mxCell>
        <mxCell id="aOQUIr4Q87Jn_gCgBzHk-14" value="" style="edgeStyle=orthogonalEdgeStyle;rounded=0;orthogonalLoop=1;jettySize=auto;html=1;" edge="1" parent="1" source="aOQUIr4Q87Jn_gCgBzHk-11" target="aOQUIr4Q87Jn_gCgBzHk-13">
          <mxGeometry relative="1" as="geometry" />
        </mxCell>
        <mxCell id="aOQUIr4Q87Jn_gCgBzHk-11" value="create_person2 launches its set of functions and completes its process." style="whiteSpace=wrap;html=1;rounded=0;" vertex="1" parent="1">
          <mxGeometry x="360" y="270" width="120" height="80" as="geometry" />
        </mxCell>
        <mxCell id="aOQUIr4Q87Jn_gCgBzHk-13" value="create_person1 is resumed and it launches functions following the get_age function" style="whiteSpace=wrap;html=1;rounded=0;" vertex="1" parent="1">
          <mxGeometry x="200" y="270" width="120" height="80" as="geometry" />
        </mxCell>
        <mxCell id="aOQUIr4Q87Jn_gCgBzHk-18" value="" style="edgeStyle=orthogonalEdgeStyle;rounded=0;orthogonalLoop=1;jettySize=auto;html=1;" edge="1" parent="1" source="aOQUIr4Q87Jn_gCgBzHk-17" target="aOQUIr4Q87Jn_gCgBzHk-1">
          <mxGeometry relative="1" as="geometry" />
        </mxCell>
        <mxCell id="aOQUIr4Q87Jn_gCgBzHk-17" value="Start" style="ellipse;whiteSpace=wrap;html=1;" vertex="1" parent="1">
          <mxGeometry x="40" y="70" width="120" height="80" as="geometry" />
        </mxCell>
      </root>
    </mxGraphModel>
  </diagram>
</mxfile>
